# xmcd CD database file
#
# Track frame offsets:
#	183
#	18223
#	35263
#
# Disc length: 640 seconds
#
# Revision: 0
# Processed by: cddbd v1.4PL0 Copyright (c) Steve Scherf et al.
# Submitted via: CDex 1.50
#
DISCID=15027e03
DTITLE=Single - The Bellamy Brothers - Neon Cowboy
DYEAR=1991
DGENRE=Country
TTITLE0=Neon Cowboy
TTITLE1=Save your love
TTITLE2=Let your love flow (Remake '91)
EXTD=YEAR: 1991
EXTT0=
EXTT1=
EXTT2=
PLAYORDER=
